<svg width="1525" height="138" viewBox="0 0 1525 138" fill="none" xmlns="http://www.w3.org/2000/svg">
<path d="M0 64.4321L36.3247 83.743C72.6493 102.764 145.087 141.82 218.16 137.698C290.491 133.864 363.247 87.5762 435.26 76.0042C508.333 64.4321 581.406 87.5762 653.42 83.743C726.175 79.6204 798.507 49.2439 871.58 52.8601C944.017 56.4764 1016.67 95.532 1089.74 99.1482C1161.86 102.764 1234.83 72.3879 1306.84 56.6934C1379.81 41.2881 1451.93 41.2881 1488.99 41.2881H1525V-5H1488.68C1452.35 -5 1379.91 -5 1306.84 -5C1234.51 -5 1161.75 -5 1089.74 -5C1016.67 -5 943.594 -5 871.58 -5C798.825 -5 726.493 -5 653.42 -5C580.983 -5 508.333 -5 435.26 -5C363.141 -5 290.174 -5 218.16 -5C145.193 -5 73.0729 -5 36.0069 -5H0V64.4321Z" fill="#FF7223"/>
</svg>
